<?xml version="1.0" encoding="utf-8"?>
<!-- Generator: Adobe Illustrator 16.0.0, SVG Export Plug-In . SVG Version: 6.00 Build 0)  -->
<!DOCTYPE svg PUBLIC "-//W3C//DTD SVG 1.1//EN" "http://www.w3.org/Graphics/SVG/1.1/DTD/svg11.dtd">
<svg version="1.1" id="Selected_Items" xmlns="http://www.w3.org/2000/svg" xmlns:xlink="http://www.w3.org/1999/xlink" x="0px"
	 y="0px" width="450px" height="250px" viewBox="0 0 450 250" enable-background="new 0 0 450 250" xml:space="preserve">
<symbol  id="Symbol_1" viewBox="0 -200 400 200.002">
	<g id="Ebene_3_1_">
		<path fill-rule="evenodd" clip-rule="evenodd" fill="#CCCCCC" d="M388.65-46.55c15.133-35.167,15.133-65.85,0-92.05
			c-14-24.167-40.933-44.533-80.8-61.1l-0.7,1.45l-191.4,124l0.3,0.4c24.267,14.7,30.517,35,18.75,60.9v0.45L372.4-16
			c0-0.033,0.017-0.083,0.05-0.15C379.017-26.617,384.417-36.75,388.65-46.55z M44.8-0.4l43.25-13.3l20.85,7.05c0.133,0,0.3,0,0.5,0
			c5.934,0.233,12.083-1.367,18.45-4.8c11.5-29.1,4.767-49.4-20.2-60.9l-13.1,2.8C90.083-68.383,83.433-60.8,74.6-46.8v0.05
			c-0.033,0-0.05-0.017-0.05-0.05L64.3-43.85l-7.45-4.7c-19.867-24-29.684-44.633-29.45-61.9c-0.566-16.466,0.383-32.583,2.85-48.35
			c4.133,0.433,8.583,0.65,13.35,0.65c10.533,0,19.566-1.033,27.1-3.1c6.7-1.9,10.383-4.167,11.05-6.8L82-168l4.65-18.8v-0.1
			c0.067-0.3,0.1-0.6,0.1-0.9c0-3.367-4.233-6.233-12.7-8.6c-8.466-2.4-18.7-3.6-30.7-3.6c-11.967,0-22.184,1.2-30.65,3.6
			c-8.1,2.267-12.317,4.983-12.65,8.15l0.85,3.1l4.55,15.35c-0.034,0.133-0.067,0.233-0.1,0.3c-0.033,0.2-0.05,0.4-0.05,0.6
			c0,2.767,3.284,5.167,9.85,7.2c0,0.133-0.017,0.233-0.05,0.3c-2.1,19.767-2.317,39.717-0.65,59.85
			c0.933,15.667,11.066,35.617,30.4,59.85l-2.4,4.3l-7.9,1.45c-0.167,0.034-0.3,0.067-0.4,0.1c-0.066,0.033-0.117,0.05-0.15,0.05
			c-2.1,0.566-3.383,2.816-3.85,6.75c-0.533,3.833-0.083,8.216,1.35,13.15c1.4,4.9,3.35,8.917,5.85,12.05
			c2.267,2.867,4.4,4.133,6.4,3.8L44.8-0.4z"/>
		<path fill-rule="evenodd" clip-rule="evenodd" fill="#56BA56" d="M0.9-185.15l-0.85-3.1C0.017-188.083,0-187.933,0-187.8
			C0-186.9,0.3-186.017,0.9-185.15z M44.8-0.4l-1.05,0.35c0.133,0,0.283-0.034,0.45-0.1C44.4-0.217,44.6-0.3,44.8-0.4z"/>
	</g>
</symbol>
<use xlink:href="#Symbol_1"  width="400" height="200.002" y="-200" transform="matrix(1 0 0 -1 25 25)" overflow="visible"/>
</svg>
